<svg width="256" height="256" viewBox="0 0 256 256" fill="none" xmlns="http://www.w3.org/2000/svg">
<path d="M37.3235 83.7227C38.824 84.6277 40.2224 85.7091 41.6676 86.7001L87.2805 118.971C89.7695 120.704 92.9075 122.587 95.1405 124.546C94.0085 125.719 92.685 126.727 91.4415 127.779L68.1725 147.911C64.184 151.719 59.803 155.134 55.5975 158.692C49.6805 163.698 43.5174 169.05 37.7409 174.239C36.5952 170.612 36.8538 166.997 36.8633 163.245L36.8721 96.7727C36.8731 92.5097 36.3965 87.8817 37.3235 83.7227Z" fill="#6B5644"/>
<path d="M218.581 83.7227C220.167 85.0092 219.471 97.7532 219.472 99.9217L219.471 152.259C219.47 157.424 219.599 162.621 219.425 167.782C219.354 169.901 218.752 171.897 218.597 173.996L218.581 174.239C217.005 173.265 215.74 171.99 214.354 170.777L188.376 148.29L167.632 130.247C165.42 128.35 163.296 126.343 161.001 124.546C166.613 119.34 178.22 111.827 184.658 107.3L208.136 90.7597C211.05 88.6577 215.371 85.0957 218.581 83.7227Z" fill="#6B5644"/>
<path d="M57.2948 68.5353L196.416 68.5323C202.988 68.5288 206.842 68.6573 212.196 73.2353C209.736 75.1368 207.126 76.8633 204.579 78.6468L171.177 102.253L137.881 125.294C127.288 132.511 125.901 130.95 116.46 124.234L43.6411 73.2353C47.6862 69.7218 52.0703 68.7518 57.2948 68.5353Z" fill="#6B5644"/>
<path d="M100.131 128.38C102.178 129.088 104.058 130.653 105.829 131.886C120.493 142.1 125.881 149 142.487 137.345C146.179 134.755 151.592 130.622 155.419 128.462L155.566 128.38C163.74 135.846 172.213 143.007 180.608 150.224L188.226 156.799C189.478 157.881 190.913 158.944 192.035 160.154C195.162 162.396 197.98 165.18 200.919 167.667L210.231 175.619C211.833 177.006 213.501 178.359 215.021 179.836C209.619 187.191 201.256 187.017 193.293 186.993H72.5932C60.4682 186.994 49.7174 189.356 40.6548 179.836C45.5031 174.905 52.0052 169.908 57.2967 165.369L95.3627 132.186C96.8552 130.901 98.3812 129.284 100.131 128.38Z" fill="#6B5644"/>
<path d="M193.293 186.994L193.455 186.865C192.665 186.319 180.557 187.256 182.598 186.108C181.783 184.769 182.77 185.176 182.631 184.281L181.946 184.008C181.756 180.621 184.26 179.24 184.561 178.106C184.935 176.695 183.428 175.401 185.317 174.715C185.396 173.765 185.117 172.821 185.078 171.87C184.963 169.034 187.277 159.556 186.783 158.656C185.242 157.578 186.236 157.223 185.524 156.284C184.97 155.552 183.594 155.468 183.208 154.535L183.318 154.418C183.66 154.586 183.888 154.707 184.283 154.682L184.46 154.471C184.148 154.279 184.078 154.11 183.995 153.769L183.616 153.787C182.755 153.327 178.458 149.915 178.687 148.929C181.926 152.028 188.287 157.749 191.846 160.276L192.035 160.154C195.162 162.396 197.98 165.181 200.919 167.668L210.231 175.619C211.833 177.006 213.501 178.359 215.021 179.836C209.619 187.192 201.256 187.017 193.293 186.994Z" fill="#6B5644"/>
</svg>
