<svg width="469" height="469" viewBox="0 0 469 469" fill="none" xmlns="http://www.w3.org/2000/svg">
<g clip-path="url(#clip0_335_80)">
<path d="M468.37 234.186C468.37 308.459 433.796 374.655 379.86 417.556C339.877 449.371 289.26 468.37 234.186 468.37C179.112 468.37 128.496 449.371 88.5096 417.556C34.5767 374.655 0 308.459 0 234.186C0 104.851 104.853 0 234.186 0C363.519 0 468.37 104.851 468.37 234.186Z" fill="#C9B28E"/>
<path d="M234.184 308.837C284.45 308.837 325.199 268.089 325.199 217.823C325.199 167.556 284.45 126.808 234.184 126.808C183.918 126.808 143.169 167.556 143.169 217.823C143.169 268.089 183.918 308.837 234.184 308.837Z" fill="#76594D"/>
<path d="M379.861 417.556C339.877 449.371 289.26 468.37 234.186 468.37C179.113 468.37 128.496 449.371 88.5098 417.556C117.79 374.542 172.071 345.654 234.186 345.654C296.302 345.654 350.587 374.535 379.861 417.556Z" fill="#76594D"/>
</g>
<defs>
<clipPath id="clip0_335_80">
<rect width="468.37" height="468.37" fill="white"/>
</clipPath>
</defs>
</svg>
