<svg width="29" height="32" viewBox="0 0 29 32" fill="none" xmlns="http://www.w3.org/2000/svg">
<path d="M14.4941 0.25C15.272 0.250028 15.9731 0.484229 16.5889 0.951172L16.5898 0.952148L27.3564 9.16504L27.5156 9.29004C27.8767 9.59136 28.1644 9.96034 28.3789 10.3945C28.6254 10.8899 28.7499 11.4165 28.75 11.9707V29.4854C28.7499 30.0946 28.5217 30.6273 28.0791 31.0732C27.6364 31.5192 27.1067 31.75 26.5 31.75H18.7324C18.2105 31.75 17.7609 31.5702 17.4023 31.209V31.208C17.0445 30.8459 16.8662 30.3951 16.8662 29.8721V19.8936H12.1338V29.8721C12.1338 30.3962 11.9561 30.8479 11.5977 31.209C11.2393 31.57 10.7904 31.75 10.2695 31.75H2.5C1.89335 31.75 1.36359 31.5192 0.920898 31.0732C0.478327 30.6273 0.250075 30.0946 0.25 29.4854V11.9707C0.25006 11.4165 0.373578 10.8899 0.620117 10.3945C0.866537 9.89953 1.20835 9.4893 1.64355 9.16699L12.4102 0.952148C13.0185 0.484335 13.7163 0.25 14.4941 0.25ZM2.75 29.2354H9.63379V19.2549C9.63385 18.7315 9.81314 18.2808 10.1729 17.9199C10.531 17.5579 10.9792 17.377 11.5 17.377H17.5C18.0212 17.377 18.4696 17.5587 18.8291 17.9209C19.1873 18.2818 19.3661 18.7319 19.3662 19.2549V29.2354H26.25V11.9707C26.2499 11.8013 26.2133 11.6538 26.1445 11.5234C26.0728 11.3876 25.9751 11.2677 25.8486 11.1631L15.0811 2.98633L15.0674 2.97461C14.9094 2.83613 14.7243 2.7666 14.5 2.7666C14.2756 2.7666 14.092 2.8366 13.9355 2.97461L13.9287 2.98047L13.9209 2.98633L3.1582 11.1572C3.02868 11.2667 2.92793 11.3897 2.85352 11.5264C2.78513 11.652 2.74891 11.7979 2.75 11.9697V29.2354Z" fill="#76594D" stroke="#76594D" stroke-width="0.5"/>
</svg>
