<svg width="35" height="31" viewBox="0 0 35 31" fill="none" xmlns="http://www.w3.org/2000/svg">
<path d="M1.5 5.50049C1.5 3.61487 1.5 2.67206 2.08579 2.08627C2.67157 1.50049 3.61438 1.50049 5.5 1.50049H11.8431C12.6606 1.50049 13.0694 1.50049 13.4369 1.65273C13.8045 1.80497 14.0935 2.094 14.6716 2.67206L18.3284 6.32892C18.9065 6.90698 19.1955 7.19601 19.5631 7.34825C19.9306 7.50049 20.3394 7.50049 21.1569 7.50049H29.5C31.3856 7.50049 32.3284 7.50049 32.9142 8.08627C33.5 8.67206 33.5 9.61487 33.5 11.5005V25.5005C33.5 27.3861 33.5 28.3289 32.9142 28.9147C32.3284 29.5005 31.3856 29.5005 29.5 29.5005H5.5C3.61438 29.5005 2.67157 29.5005 2.08579 28.9147C1.5 28.3289 1.5 27.3861 1.5 25.5005V5.50049Z" stroke="#76594D" stroke-width="3"/>
</svg>
