<svg width="21" height="30" viewBox="0 0 21 30" fill="none" xmlns="http://www.w3.org/2000/svg">
<path d="M6 28.5C6 29.325 6.675 30 7.5 30H13.5C14.325 30 15 29.325 15 28.5V27H6V28.5ZM10.5 0C4.71 0 0 4.71 0 10.5C0 14.07 1.785 17.205 4.5 19.11V22.5C4.5 23.325 5.175 24 6 24H15C15.825 24 16.5 23.325 16.5 22.5V19.11C19.215 17.205 21 14.07 21 10.5C21 4.71 16.29 0 10.5 0ZM13.5 17.55V21H7.5V17.55C5.22 15.945 3 14.295 3 10.5C3 6.36 6.36 3 10.5 3C14.64 3 18 6.36 18 10.5C18 14.235 15.735 15.975 13.5 17.55Z" fill="#76594D"/>
</svg>
